<svg xmlns="http://www.w3.org/2000/svg" width="389.31" height="268.71" viewBox="0 0 389.31 268.71"><defs><style>.cls-1{fill:#ceebf0;}.cls-2{fill:#191314;}.cls-3{fill:#8fbdcb;}.cls-4{fill:#fff;}.cls-5{fill:#46595c;}.cls-6{fill:#7fa2a1;}.cls-7{fill:#d68d7b;}.cls-8{fill:#6b5156;}.cls-9{fill:#507396;}.cls-10{fill:#f2a785;}.cls-11{fill:#d18a75;}.cls-12{fill:#c3e7f2;}.cls-13{fill:#e1b5a8;}.cls-14{fill:#e4bdb1;}.cls-15{fill:#e59a7f;}.cls-16{fill:#bc4b56;}.cls-17{fill:#ce5f68;}.cls-18{fill:#f58d76;}.cls-19{fill:#f3e0d7;}.cls-20{fill:#c6e1ce;}.cls-21{fill:#549dc5;}.cls-22{fill:#e8ab41;}.cls-23{fill:#563616;}.cls-24{fill:#7f5737;}.cls-25{fill:#a4713d;}.cls-26{fill:#4d3513;}.cls-27{fill:#94d1d7;}.cls-28{fill:#f1b345;}.cls-29{fill:#8bc8cb;}.cls-30{fill:#b1dae0;}.cls-31{fill:#dfa186;}.cls-32{fill:#c4796a;}.cls-33{fill:#d7e3e5;}.cls-34{fill:#294360;}.cls-35{fill:#304d70;}.cls-36{fill:#3c5a7d;}.cls-37{fill:#2b4560;}.cls-38{fill:#eaf4f6;}.cls-39{fill:#d0ebee;}.cls-40{fill:#c47a65;}.cls-41{fill:#223144;}.cls-42{fill:#dbf1fa;}.cls-43{fill:#df728c;}.cls-44{fill:#231f20;}.cls-45{fill:#293a4c;}.cls-46{fill:#7bbfc3;}.cls-47{fill:#7a5c5f;}.cls-48{fill:#8e7478;}.cls-49{fill:#e7eeee;}.cls-50{fill:#6e574b;opacity:0.27;}.cls-51{fill:#e6e7e8;}</style></defs><title>E7</title><g id="Layer_2" data-name="Layer 2"><g id="Layer_1-2" data-name="Layer 1"><path class="cls-1" d="M370.8,171.78c-5.23-2.12-13.46-3.84-9.86-11.09,2.73-5.51,27.34-7.39,28.29-14.28,1.6-11.67-19.7-10.43-26.48-12.89-3.94-1.44-9.56-4.23-9.92-9.11-.53-7.09,5.76-9.9,10.9-10.13,6.33-.28,20.77-4.4,15.33-15.28-3-6-21.1-4.12-29.24-6.68-3.24-1-9.41-3-10.27-7C337.76,77,359,77.59,354.22,64.13c-3.53-9.89-15-8.43-22-13.88-3.53-2.73-6.67-6.83-5.73-11.81,1.09-5.81,7.3-7.76,11.27-11.23,9.19-8-.85-10-8-13.57C309,3.51,217.73,0,200.87,0,173.39,0,43.3,4.71,46.29,24c1.9,12.29,15.39,6.57,14.77,19C60.5,54.25,47.32,56.19,40,57.75,27.43,60.4,14.25,73.83,29.57,81.85c7.76,4.07,16.91,7.69,12.87,18-3.73,9.53-19.35,11.84-28,14.4-4.53,1.35-10,.62-12.61,5.41-2.73,5,.2,10.54,4.73,13.1,5.23,3,16.63,3,18.65,9.93,1.61,5.53-3.65,10.49-7.95,12C8.27,158,4.06,159,3.06,167c-2,16.4,20.3,12.15,23.08,23.65,2.41,10-9.16,12.61-15.95,15.33-11,4.4-10.9,18.5.8,22.27,4.8,1.54,9.46,0,14.18,2.6,6.21,3.45,8,8.84,2.36,14-2,1.84-5.18,1.28-6.77,3.5-4.51,6.3,2.07,15.43,8.5,13.49,8.86-2.66,17.53-6.2,26.93-6,3.58.05,7.17.17,10.75.27l27.78.72q36.42,1,72.83,1.91,40.5,1,81,1.88c23.76.49,47.53.94,71.29,1.14,12.7.11,25.4.4,38.1-.06,11.11-.41,16.1-2.95,16.71-15.35.19-3.65-.47-7.18.15-10.82.68-4,3.91-8.18,2.76-12.25a15.1,15.1,0,0,0-2.64-4.88c-4.28-5.69-10.9-10.43-3.71-18.29,3.94-4.31,11-4.86,13.53-10.61C389.83,177.73,379.17,175.18,370.8,171.78Z"/><path class="cls-2" d="M113.72,97.68s1.11-7.73,0-9.28-2,1.35-2,1.35l1.25,9Z"/><path class="cls-3" d="M211.85,23.23c-6-2.87-14.93-2.52-22.69.67a30.6,30.6,0,0,0-9.11,5.71,21.53,21.53,0,0,0-7.18,14.6c-.8,11.88,5.78,21.92,17.75,25.53,12.49,3.78,29.57-2.17,34.23-14.54C230,41.63,223.19,28.6,211.85,23.23Zm9.85,30.65c-5.53,10.2-18.9,16.05-29.77,12.74-10.4-3.16-16.12-12-15.44-22.36,1.1-16.6,23.38-22.84,33.45-18.16C219.57,30.57,226.6,44.85,221.7,53.88Z"/><path class="cls-4" d="M209.94,26.1c-10.07-4.68-32.35,1.56-33.45,18.16-.68,10.41,5,19.2,15.44,22.36,10.87,3.31,24.24-2.54,29.77-12.74C226.6,44.85,219.57,30.57,209.94,26.1Zm-31.1,20.63a1,1,0,0,1-.46-1.58A1.28,1.28,0,0,1,180,44.6C181.4,45.24,180,47.13,178.84,46.73Zm20.54-21a1,1,0,0,1,.76-.24c1.24,0,1.6,1.88.32,2.14A1.18,1.18,0,0,1,199.38,25.75Zm-1,39.81a1,1,0,0,1-.78-1.89l0,0A1,1,0,1,1,198.33,65.56ZM194.08,57c-.36.84-.93,1.82-1.42,1.5s.17-1.47.31-1.86c.78-2.26,4-10.06,5-12a2.23,2.23,0,0,0,1.56.59C198.67,47.42,195,54.86,194.08,57ZM198,43.22a1.74,1.74,0,0,1,3.26-1.16C202.21,44.92,198.24,45.34,198,43.22Zm13.26,6.88c-1,1.39-10.15-5.33-10.13-5.4a1.36,1.36,0,0,0,1-1.51C203.4,43.89,211.7,49.48,211.25,50.1Zm8.25-4a1,1,0,0,1,.45-.21c1.12-.25,2.26,1,.89,1.67C219.8,48.05,218.84,46.68,219.5,46.09Z"/><path class="cls-5" d="M202.17,43.19a1.36,1.36,0,0,1-1,1.51c0,.07,9.1,6.79,10.13,5.4C211.7,49.48,203.4,43.89,202.17,43.19Z"/><path class="cls-5" d="M198,44.55c-1,2-4.2,9.78-5,12-.14.39-.78,1.55-.31,1.86s1.06-.66,1.42-1.5c.91-2.09,4.59-9.53,5.43-11.81A2.23,2.23,0,0,1,198,44.55Z"/><path class="cls-6" d="M198,43.22c.25,2.12,4.22,1.7,3.26-1.16A1.74,1.74,0,0,0,198,43.22Z"/><path class="cls-5" d="M180,44.6a1.28,1.28,0,0,0-1.63.55,1,1,0,0,0,.46,1.58C180,47.13,181.4,45.24,180,44.6Z"/><path class="cls-5" d="M220,45.88a1,1,0,0,0-.45.21c-.66.59.3,2,1.34,1.46C222.21,46.9,221.07,45.63,220,45.88Z"/><path class="cls-5" d="M200.14,25.51a1,1,0,0,0-.76.24,1.18,1.18,0,0,0,1.08,1.9C201.74,27.39,201.38,25.53,200.14,25.51Z"/><path class="cls-5" d="M197.6,63.64l0,0a1,1,0,0,0,.78,1.89A1,1,0,1,0,197.55,63.67Z"/><path class="cls-7" d="M298.52,149.25l1.09-1a10.54,10.54,0,0,1-.41-2c6.79-.62,6.29-11.71,6.6-16.59.18-3,.18-5.27-.36-5.35,7.57,1,16.47-8.28,20.15-14.19,3,4.85,1.38,10.44,1.9,15.8a93.43,93.43,0,0,0,2.1,13c.92,3.84,3.71,3.58,7,5,4.6,1.93,1.09,7.07-.52,9.68-1.84,3-3.25,6.41-4.88,9.57-2.4,4.67-6.37,8.73-11.46,10.34-7.45,2.35-16.08.62-21-5.88-3-3.92-4.63-8.61-3.64-12.8A10.58,10.58,0,0,1,298.52,149.25Z"/><path class="cls-8" d="M294,133.24c.2-2.29-2.21-3.58-2.54-5.86-.45-3,1.37-4.4,3-6.48a16.92,16.92,0,0,0,2.8-7.12,19.91,19.91,0,0,0-.63-8.13c-.73-2.26-1.82-4.38-2.28-6.73a13.67,13.67,0,0,1-.2-4.16,14.6,14.6,0,0,1,6.43-10.35A17.8,17.8,0,0,1,309.53,81c1.41-.13,5.87-.56,5.86,1.79-1.66.72-3.3,1.11-4.56,2.43a24.5,24.5,0,0,1-3.77,3.71,20.17,20.17,0,0,0-2.93,1.7c-2.05,2-.77,5.35-.38,7.71a26,26,0,0,0,1.85,5.18,31.52,31.52,0,0,1,1.77,9.12c.31,4.45.44,8.91.42,13.38,0,5.35,1,11.26-2,16-1.38,2.26-3.52,4.77-6.26,5.18s-6.16-.52-7.77-2.86c-1.19-1.71-1.05-3.42-.4-5.3S293.78,135.33,294,133.24Z"/><path class="cls-9" d="M300.35,111a3.82,3.82,0,0,0,.82,1.37.82.82,0,0,1,.15,1.08.71.71,0,0,1-1,.15,5.56,5.56,0,0,1-1.29-2A.74.74,0,1,1,300.35,111Z"/><path class="cls-9" d="M303.86,117.65a14.69,14.69,0,0,1,.67,2.44.76.76,0,0,1-.61.88.78.78,0,0,1-.85-.65,12,12,0,0,0-.55-2.06C302.14,117.34,303.49,116.73,303.86,117.65Z"/><path class="cls-9" d="M306.9,117.79a.76.76,0,0,1,.84.65,5.93,5.93,0,0,0,.51,1.54.74.74,0,1,1-1.35.61,7.17,7.17,0,0,1-.61-1.92A.77.77,0,0,1,306.9,117.79Z"/><path class="cls-10" d="M309.38,87.69c3.41-1,7.34.89,9.61,3.4s2.64,5.19,3.45,8.34a11.23,11.23,0,0,0,2.13,4.22c1.07,1.36,2.64,2.3,3.43,3.88,1.21,2.41.76,5.79-1.81,7.11s-2.65,4.37-3.93,6.67c-1.53,2.74-4.44,4.44-7.17,5.61-2.25,1-4.57,2.12-7.1,1.9-2.72-.23-4.77-2.2-6.3-4.78A33.83,33.83,0,0,1,297.32,108c.05-4.43.09-10.76,2.82-14.42C302.07,91,306.45,88.6,309.38,87.69Z"/><path class="cls-11" d="M326.07,112.77l-1.18.24c0-.91.05-1.84.14-2.74C326.74,109.94,326.43,111.71,326.07,112.77Z"/><path class="cls-12" d="M304.93,107.5l-.08,0a.54.54,0,0,0,.22,0Z"/><polygon class="cls-13" points="317.32 110.96 317.31 110.96 317.32 110.95 317.32 110.96"/><polygon class="cls-13" points="317.32 110.96 317.31 110.96 317.32 110.95 317.32 110.96"/><path class="cls-14" d="M321.94,106.68l0-.05A.08.08,0,0,1,321.94,106.68Z"/><path class="cls-4" d="M312.86,118.07l.13,0c-.18,2.53-3.32,5.1-6.8,4.92-1.29-.07-1.75-1.39-2.93-5C303.41,118.49,311.79,118.33,312.86,118.07Z"/><path class="cls-15" d="M313.83,117.14c.26,0,.53,1.23.48,1.23a.32.32,0,0,1-.14,0C313.87,118.26,313.4,117.12,313.83,117.14Z"/><path class="cls-15" d="M303,116.93a.21.21,0,0,1,.06.1c.09.24-.41,1.1-.61.82S303,116.9,303,116.93Z"/><path class="cls-16" d="M312.42,120a9.18,9.18,0,0,1-2.28,2.31,8.14,8.14,0,0,1-4.66.9,7.19,7.19,0,0,1-1.53-2.91A41.39,41.39,0,0,0,312.42,120Z"/><path class="cls-17" d="M308.17,121c.9,0,2.57.22,2.85.61a6.15,6.15,0,0,1-3,1.43c-.23,0-2.46.45-2.46,0C305.59,122,307,121,308.17,121Z"/><path class="cls-18" d="M303.84,117.43c.32-.25.7-.75,1.12-.77a1.93,1.93,0,0,1,1.44.8c.31-.37.59-.77,1.12-.8a7.12,7.12,0,0,1,2.59.52,10,10,0,0,0,3,.69c.12,0-.31.29-.34.3a49.61,49.61,0,0,1-5.62.58,11.44,11.44,0,0,1-2.55-.17,8.2,8.2,0,0,1-1-.23s-.58-.29-.44-.33S303.66,117.57,303.84,117.43Z"/><path class="cls-18" d="M305.79,122.94a3.66,3.66,0,0,0,1.83.17,6.41,6.41,0,0,0,3.11-1.34,5.54,5.54,0,0,0,1.58-1.76,11.3,11.3,0,0,0,.69-2,4.78,4.78,0,0,1-.19,2.11,6.29,6.29,0,0,1-1.09,2.16,5.39,5.39,0,0,1-2.87,1.94,4.17,4.17,0,0,1-2.59,0,3.23,3.23,0,0,1-1.53-1.27,13.68,13.68,0,0,1-1.15-3.37c-.13-.39-.11-.9-.25-1.26a23.28,23.28,0,0,0,1.31,3.37A3.21,3.21,0,0,0,305.79,122.94Z"/><path class="cls-12" d="M304.57,106.19l-.09,0,.16,0Z"/><path class="cls-12" d="M304.64,106.2h0Z"/><path class="cls-19" d="M304.57,106.19l-.09,0,.16,0Z"/><polygon class="cls-13" points="317.97 109.22 317.96 109.22 317.97 109.22 317.97 109.22"/><path class="cls-14" d="M322.84,104.65v-.05A.07.07,0,0,1,322.84,104.65Z"/><path class="cls-20" d="M306.14,106.66l-.1,0,.19,0Z"/><path class="cls-21" d="M329.91,140.44v0Z"/><path class="cls-22" d="M366.46,178.46c-2.7-1.81-5.6-3.07-8.4-3-3.18,0-2.45,3.46-2.64,5.82-.23,2.78-.06,3.11,2.45,4.06a30.05,30.05,0,0,1,18,18.48c3,9,4.39,25-3.79,31.87,6-3.85,10.93-9.74,12.45-17,2.19-10.49-2.42-24.19-9.26-32.11A46.67,46.67,0,0,0,366.46,178.46Z"/><path class="cls-23" d="M75.46,104.77c2,3.15,6,8.64,7.53,12,1.9,4.06,5.63,8,9.46,8.68,1.68.29,3.23-.49,4.88-.55.82,0,6.35-.11,6.72-1.14-.22,5.79,2.72,23.61,2.72,23.61s-2.63,3.06-12.9,3.44a28.23,28.23,0,0,1-17.42-4.88S78.15,122.27,75.46,104.77Z"/><path class="cls-12" d="M103.68,105.48l-.19,0a1.7,1.7,0,0,0,.31-.06Z"/><path class="cls-19" d="M103.68,105.48h-.09l.21,0Z"/><path class="cls-19" d="M103.59,105.49h0Z"/><polygon class="cls-13" points="85.93 109.53 85.93 109.52 85.94 109.53 85.93 109.53"/><path class="cls-14" d="M79.48,103.42a.14.14,0,0,1,0-.07Z"/><path class="cls-24" d="M73.74,104.68c2-.44,4.05,2.95,5.89,1.21,1-.92,0-3,0-4.16-.13-5.55-.39-11.49,2-16.66,1.78-3.92,5.59-3.26,8.54-1.68,3.22,1.74,8,.68,10.48,3.72.73.87.49,1.54.3,2.47,1.06.07,2.1.12,3.05.14a10.58,10.58,0,0,0,2.32-.27,12.3,12.3,0,0,1,2.17-.29A3.69,3.69,0,0,1,112,91.5c.28,1.08.5,2.17.69,3.27s.31,2.15.39,3.21a76.31,76.31,0,0,1-.24,10.76c-.33,5-2.1,10.08-4,14.69-.51,1.26-1.11,2.86-1.85,4.47-1.76,3.78-3.65,6.38-7.91,6.7-3.48.26-6.69-1.3-9.82-2.62-3.78-1.6-7.82-3.91-10-7.58-1.82-3.09-2-7.17-5.56-9C69.76,113.47,68.29,105.89,73.74,104.68Z"/><path class="cls-25" d="M75.11,108.85c.15,1.23.17,2.5.24,3.75l-1.69-.33C73.14,110.81,72.66,108.39,75.11,108.85Z"/><path class="cls-2" d="M75.05,80.11c4.2-3.52,9.14-3.16,14.14-3.21,3,0,8.34.29,11.61.3s8.48.67,10.69,1.83c1.58.83,2.48,2.92,3.47,4.16s.31,5.54-1.24,7A8.88,8.88,0,0,1,112,91.46c-2.42,1.33-5.08,1.21-8.14,1.42a15.48,15.48,0,0,1-7.67-1.62c-1.34-.7-2-2-3.53-2.47-2.73-.94-6.57-.35-9.22.68s-2,1.86-2.49,4.66c-1,6.28.39,13-.76,19.16-3.3.5-2.22-4.55-3.76-6.14-1.24-1.28-2.52-.61-3.36-2.82-.54-1.42-.38-3.06-.85-4.51C70.43,94.36,70.2,84.18,75.05,80.11Z"/><path class="cls-2" d="M78.29,97.71c-.1-2.2-.26-4.28.59-6.42,1.51-3.81,9.21-5.06,12.68-3.74,2.5,1,4.47,2.35,7.19,2.65a25.66,25.66,0,0,0,10.66-1c3.25-1,5-1.15,4.31-4.63,1.6,7.7-11.56,11.21-18.17,7.83-1.61-.82-3.4-.51-5.17-1.26-2-.85-4.37-.26-6.38.3a6.58,6.58,0,0,0-2.85,1.4A3.68,3.68,0,0,0,80,95.66c-.34,6.74.2,11.42,1,18.11-4-.07-2.8-3.24-4.13-5.8-.71-1.39-2.17-1.08-3.09-2-1.62-1.73-2-6.37-2.25-8.63C73.11,98.2,78.49,102.16,78.29,97.71Z"/><path class="cls-4" d="M91.42,119c1.63.3,14.46.25,14.69-.29-1.92,4.5-2.53,5.69-4.5,5.82-5.33.34-10.2-2.33-10.4-5.5Z"/><path class="cls-26" d="M90.52,119.87c.46-.16,1.17-1.91.52-1.89-.4,0-.81,1.9-.73,1.91A.5.5,0,0,0,90.52,119.87Z"/><path class="cls-26" d="M105.89,118.11c-.13.38.63,1.71.93,1.28.19-.26-.8-1.47-.84-1.42A.42.42,0,0,0,105.89,118.11Z"/><path class="cls-16" d="M104.91,121.47a98.4,98.4,0,0,1-13.17-.67,8.66,8.66,0,0,0,3.61,3,18.73,18.73,0,0,0,7.22,1C103,124.78,104.22,122.84,104.91,121.47Z"/><path class="cls-27" d="M313.51,259.18c-1.43-9.1-1.44-18.78-1.82-28-.46-11.26-.72-23.94,2.77-34.68a19.21,19.21,0,0,1,.81-2c-3.56,1.23-7.13,2.43-10.77,3.32-2.16,10.09-.91,20.64.49,31,1.71,12.66-1.07,19.16,1.86,31.82"/><path class="cls-27" d="M366,259.06c2.63-13.57,1.31-12.65,2.68-26.34.64-6.37,1.25-12.74,1.78-19.12a60.16,60.16,0,0,0-3.37-25.87c-4.17,1-8.36,1.91-12.57,2.74,4.9,11.72,4.32,26,3.29,38.32-.66,8-.29,15.63-.83,23.57-.45,6.6-.48,0-.45,6.6"/><path class="cls-28" d="M326.84,176.42c-11.15,1.32-23.16,7.91-29.09,17.72-12.46,20.62,3.84,38,22.06,46.82,7.95,3.84,16.83,3.15,25.44,4.14,15,1.71,26.9-5.22,32.54-19.18,2.68-6.62,3-14.52.18-23.25C370.35,179.2,349,173.79,326.84,176.42Z"/><path class="cls-29" d="M24.53,224.27c-1.54-8.15-2.91-16.62-3-24.79-.05-4.35.56-8,.19-12.18-.4-4.52-.86-7.88.44-12.36.58-2,11.36-20.63,12-19.73-1.57-2.33-5.37-1.79-7.73-1.24-37.29,8.7-27.72,70.33-9.23,95,4.61,6.14,10.05,8.52,17.77,7,3.54-.69,8.78-2.58,11.53-5.29C33.26,248.56,26.76,236.14,24.53,224.27Z"/><path class="cls-30" d="M34.15,153.51a24,24,0,0,0-12.71,6.12c-7.45,7-11,19.18-10.21,35.49.82,17.65,6.3,45.46,19.19,54.41,16.09,11.17,42.83,3.73,50.42-18.25,7-20.36-5.82-56.4-17.56-71.15C53.81,148.24,45,151.67,34.15,153.51Z"/><path class="cls-31" d="M206.51,227.27c-3.06-2-7.19-1.7-10.61-.92-3.05.7-15.93,2.71-19.4,2.22-1.83-.25-2.33,12.82-2,12.89,2.6.6,5.1.29,7.71.35,3.66.08,8.15.55,11-2.24,1.11-1.08,1.17-2.64,1.95-3.89,1.22-1.94,3.56-2.27,5.68-2a3.73,3.73,0,0,1,2.55,1c.35.3,1.86,3.1,2.07,3.07,2.21-.38,3.71-2.48,4.21-4.51C210.25,230.84,208.42,228.55,206.51,227.27Z"/><path class="cls-32" d="M201.89,228.75l-.18,1.39c2.81.36,4.17,3.64,4.23,5.86l1.43,0C207.27,232.79,205.33,229.19,201.89,228.75Z"/><path class="cls-32" d="M206.09,228.22l-.5,1.31c.89.33,1.19,1,1.6,1.88a9.07,9.07,0,0,0,.72,1.37l1.19-.77a7.22,7.22,0,0,1-.61-1.17A4.27,4.27,0,0,0,206.09,228.22Z"/><path class="cls-33" d="M178.9,227.63c-.93-2.12-5.57-1.48-7.44-1.29,1.4,2.14,1.24,6.23,1.29,8.67.09,4.41.35,9.23-1.31,13.34,3.55.42,7.26-1.88,7.83-5.08.74-4.16.27-9.06.12-13.33A6.38,6.38,0,0,0,178.9,227.63Z"/><path class="cls-34" d="M168.65,224.88a48,48,0,0,1-5.09-.58c-8.14-1.57-20.27-6.05-24-14.07-8-17.27-3.62-35.8-8.29-53.53-2-7.43-7.1-14.44-15.61-12.63-10.06,2.14-15.21,15-14.84,24.52.16,4,1.68,6.38,2.89,9.93,1.39,4.08.12,8.84-.13,13-.67,11.37-.08,22.82,4.39,33.42,1.87,4.42,4.64,8.1,7.09,12.17,2.16,3.58,3.76,7.66,6.78,10.68,7.31,7.32,18.73,7.36,28.32,5.9,7.08-1.09,23.35-4.07,23.34-13.31a72.58,72.58,0,0,0-.06-9.17C173,227.94,171.85,225.17,168.65,224.88Z"/><path class="cls-33" d="M115.65,169.21q-.53-3.41-1.29-6.76a17.06,17.06,0,0,1,2.11-13,9.07,9.07,0,0,0-1-2.29,15.45,15.45,0,0,1-5,1.89c-3.73,1.69-7.81,2.9-12,2.4-1.93-.23-3.8-.51-5.66-.85a14.73,14.73,0,0,1-2.58.22h-.18a16,16,0,0,1-7.79-2,4.93,4.93,0,0,1-2,.45,5,5,0,0,1-4.48-2.78,4.91,4.91,0,0,1-.28-.62c-3,.55-4.15,2.36-5.42,6.32-3.47,10.82-4,23.55-4.8,34.85-.65,9.08-2.24,18-2.78,27.05-.51,8.66-.67,17.25-.6,25.93.05,6.84,2.48,12.73,7,16.79,7.64.88,14.85,2.18,22.11,2.91a77,77,0,0,0,18.77,0c.31-.19.62-.38.91-.59,7.32-5.22,8.06-15.17,8.53-23.38q.24-4.11.22-8.24c0-12.39-1.42-24.84-2.24-37.17C116.74,183.28,116.45,176.23,115.65,169.21Z"/><path class="cls-35" d="M122.24,162.39c0-4.95.74-14-3.52-17.52-2.9-2.43-10.36-.08-12.23-3.84,1.34,2.69,1.78,6.1,2.14,9.1.56,4.7,1.38,101,6.37,108,3.26,4.56,6.56,1.65,10-.5-1.17-8.21-1.09-1.75-1.52-10C122,219,122.13,191,122.24,162.39Z"/><path class="cls-36" d="M89,153.39c-2.41,6.47,8.62,7.27,11.16,2.2C103.11,149.65,90.84,148.43,89,153.39Z"/><path class="cls-37" d="M88.28,259.41c3.29-16.89,1.19-24.69-.49-41.77-.23-2.43-.49-4.85-.76-7.27-1.51-13.44-5.7-26.67-7.28-40.2l-.06-.48a14.6,14.6,0,0,1-3.3-6.23,50,50,0,0,1-1.25-7.72c-.17-.45-.33-.91-.46-1.38l-.57-4.24c-.4-3,1-5.07,1-8.13,0-.17.29-2.17.29-2.34C68,141,52.36,144.94,49.12,145.58c-9,1.8-6.58,6.83-5.26,14s-1.31,20.1-.06,27.23c1.44,8.25-3.62,35.48-3.87,43.92-.52,17.55-8.08,23.32-3.85,29.52"/><path class="cls-36" d="M77.22,135.52c-2.48,1-4.12,7.32-4.79,9.49a40.83,40.83,0,0,0-1.7,9.87c-.07,1.15-.88,5.45-.14,6.39,2.24,2.78,6.17,7.9,6.17,7.9s-1.88,10.12-1.89,15c3.07,3.8,9.18,22.33,12.16,26.21-1-9.16-9.89-53.51-10.85-60.79C75.88,147.33,77.22,136.09,77.22,135.52Z"/><path class="cls-36" d="M105.25,137.06c.37,3.16.9,8.34,1,9,.45,3,.11,6.21.5,9.29.47,3.61,4.39,52.56,4,53.46,1.17-1.47,3.31-26.11,3.31-26.11l-4.39-10.35L115.14,162S109.22,137.68,105.25,137.06Z"/><path class="cls-38" d="M84.58,148.56a34.5,34.5,0,0,1-8.4-4.12c-.07,1.26-.1,2.65-.06,4.43,1.69,5.59,6.09,13.13,7.26,12.42a16,16,0,0,0,2.45-2.21c2.18-2.42,7-6.16,8.51-9A30.38,30.38,0,0,1,84.58,148.56Z"/><path class="cls-38" d="M99.61,149.75a11.13,11.13,0,0,1-5.27.35c.76,2.25,3.57,5,5,7.07a11.81,11.81,0,0,0,1.52,1.84c.82.66,4.59-4.47,5.48-8.42a25,25,0,0,0-.51-4.07A19.13,19.13,0,0,1,99.61,149.75Z"/><polygon class="cls-39" points="115.78 204.03 115.78 204.03 115.78 204.03 115.78 204.03"/><path class="cls-40" d="M71.81,268.66l-.07,0A.13.13,0,0,0,71.81,268.66Z"/><path class="cls-30" d="M186.6,245.94c-1.66.05-80.12-.3-84.92,1.76a5.94,5.94,0,0,0-1.49,10.06c2.38,2.25,7,.75,9.66.71,6.56-.08,65.89-1.93,67.1-2,2.12-.06,5.21-1,5.09-2.95a10.52,10.52,0,0,0,4.05-1.22C188.34,251.05,190.12,245.84,186.6,245.94Z"/><path class="cls-41" d="M103.05,207.72q-1.48-14.29-3-28.6l-1.26-12.21c-.31-3-.39-6.11-1-9a12.56,12.56,0,0,1-6,.49,4.31,4.31,0,0,1-1.32-.46c-.63,19.13,2.18,74.09,2.33,87.68,2.2,9.83,5.86,16,7.74,16,2.31,0,5.79-15.79,6.33-17.93-.69-3.54-.85-7.25-1.24-10.83Q104.34,220.3,103.05,207.72Z"/><path class="cls-39" d="M21.35,247.1h0l-.17,0c.1,0-.1-.05-.14-.07h0l-.05,0a.6.6,0,0,0-.08-.08s-.09-.13-.11-.16a1.55,1.55,0,0,1-.12-.22,1.16,1.16,0,0,0-.08-.2,1.13,1.13,0,1,0-2.15.68,3.25,3.25,0,0,0,3.06,2.4,1.12,1.12,0,0,0,1.08-1.17A1.16,1.16,0,0,0,21.35,247.1Z"/><path class="cls-39" d="M14.93,238c-.8-1.21-2.72,0-1.91,1.19a12.59,12.59,0,0,1,1.49,2.65c.48,1.37,2.65.7,2.16-.67A14.58,14.58,0,0,0,14.93,238Z"/><path class="cls-39" d="M11.14,229.35a6.2,6.2,0,0,0-.4-1.09,1.13,1.13,0,0,0-1.56-.36,1.16,1.16,0,0,0-.36,1.56,4.76,4.76,0,0,1,.24.84,5.92,5.92,0,0,0,.4,1.09,1.13,1.13,0,0,0,1.56.36,1.15,1.15,0,0,0,.36-1.55A4.87,4.87,0,0,1,11.14,229.35Z"/><path class="cls-39" d="M4.2,215.89c0-1.45-2.26-1.36-2.26.1a14.94,14.94,0,0,0,.37,3.52c.34,1.41,2.5.74,2.16-.68A12.58,12.58,0,0,1,4.2,215.89Z"/><path class="cls-39" d="M0,203.39V206c0,1.46,2.26,1.36,2.26-.1V203.3C2.26,201.84,0,201.94,0,203.39Z"/><path class="cls-39" d="M1.08,192.85A1.15,1.15,0,0,0,0,194V196a1.14,1.14,0,0,0,1.18,1.08,1.15,1.15,0,0,0,1.08-1.18v-1.94A1.14,1.14,0,0,0,1.08,192.85Z"/><path class="cls-39" d="M2.68,181.26a1.14,1.14,0,0,0-1.36.84,22.74,22.74,0,0,1-.54,2.3,1.15,1.15,0,0,0,.46,1.53,1.13,1.13,0,0,0,1.53-.45,23.74,23.74,0,0,0,.75-2.87A1.12,1.12,0,0,0,2.68,181.26Z"/><path class="cls-39" d="M32.92,244.33l-.18-.09-.16-.11c-.12-.1-.24-.2-.35-.31l-.15-.16,0,0-.06-.08a2.82,2.82,0,0,1-.26-.44,1.13,1.13,0,1,0-1.92,1.2,4.86,4.86,0,0,0,2,2,1.13,1.13,0,1,0,1.08-2Z"/><path class="cls-39" d="M26.92,235.47a1.94,1.94,0,0,1-.19-.85,1.13,1.13,0,0,0-2.26.1,4.67,4.67,0,0,0,1.32,3,1.13,1.13,0,1,0,1.55-1.64A2.93,2.93,0,0,1,26.92,235.47Z"/><path class="cls-39" d="M23.21,226.17a.37.37,0,0,0,0-.09,1.09,1.09,0,0,1,0-.18,1.13,1.13,0,0,0-2.26.1,3.2,3.2,0,0,0,.18,1c0,.09.07.18.11.27s0,.09,0,.13a1.13,1.13,0,0,0,2.25-.17,2,2,0,0,0-.18-.73C23.28,226.37,23.24,226.27,23.21,226.17Z"/><path class="cls-39" d="M19.86,218.05a5.53,5.53,0,0,0-.41-1.09,1.12,1.12,0,0,0-1.55-.36,1.15,1.15,0,0,0-.36,1.55,4.28,4.28,0,0,1,.23.85,7.16,7.16,0,0,0,.41,1.09,1.13,1.13,0,0,0,1.56.36,1.16,1.16,0,0,0,.36-1.56A4.76,4.76,0,0,1,19.86,218.05Z"/><path class="cls-39" d="M15,206.26a1.16,1.16,0,0,0-.36,1.56c-.07-.15.06.21.06.19l.06.22c0-.12,0-.11,0,0a4.43,4.43,0,0,1,0,.63A1.15,1.15,0,0,0,16,210,1.16,1.16,0,0,0,17,208.79a5,5,0,0,0-.49-2.17A1.14,1.14,0,0,0,15,206.26Z"/><path class="cls-39" d="M34.63,239.56a1.14,1.14,0,0,0-1.56-.36,1.16,1.16,0,0,0-.36,1.56c.4.77.9,1.49,1.3,2.26a1.13,1.13,0,0,0,1.55.36,1.15,1.15,0,0,0,.36-1.56C35.53,241.05,35,240.33,34.63,239.56Z"/><path class="cls-39" d="M29.72,228.23l-.1-.18a1.13,1.13,0,0,0-2.24.21,4.68,4.68,0,0,0,.81,1.84,1.13,1.13,0,0,0,1.92-1.19A7.51,7.51,0,0,0,29.72,228.23Z"/><path class="cls-42" d="M167.56,208a2,2,0,0,0,.56-.43l-1.44.43Z"/><path class="cls-35" d="M357,255.3c-.42-3.46-.75-6.45-1.93-9.2a14.62,14.62,0,0,0-3-4.44c-2.18-2.27-3-5.13-4.8-7.42s-5.71-3.71-8.27-4.77a54.06,54.06,0,0,0-19-3.86c-11.81-.35-20.51,8-27.34,16.66-10.26,13-37.22,13.6-40.6,16.73"/><path class="cls-21" d="M331.13,139.25v0Z"/><path class="cls-10" d="M239.11,229.9h0Z"/><path class="cls-10" d="M261.85,223.85c-3.24-.32-6.49-.61-9.76-.61-2.9,0-5.39-.94-8.17-1.61-.13,2,2.89,3.34.5,5-2.61,1.79-6.89.5-8.69,3.39a4.38,4.38,0,0,0-.38.75,5.1,5.1,0,0,0,3.36,6.43c2,.48,4.55,0,6.7.26a61.24,61.24,0,0,0,9.18.55c2.85,0,5.83.26,6.55-3.1C261.35,233.91,262.47,223.91,261.85,223.85Z"/><path class="cls-29" d="M294.26,145.28c-5.33,2.42-7.21,8-8.07,13.46-1.42,9-2,17.66-4.79,26.42-2.19,6.89-3.9,13.93-8.57,19.64-5.14,6.28-12.42,11.51-20.44,13-2.7.52-11-.2-12.35,3.21-1.09,2.8,3.43,6.5,5.3,7.68,5.08,3.2,11.07,2.11,16.13,4.85s11.7.75,16.84-1.2c6.88-2.61,12.14-8.48,17.19-13.62,8.82-9,13.11-20.9,15-33.11a63.59,63.59,0,0,0-.1-18.43C309.26,159,308.09,139,294.26,145.28Z"/><path class="cls-30" d="M348.52,196.66c-.7-3.8-3.54-6.69-4.26-10.51s.19-9,0-13c-.19-3.66-1.37-7.59-.88-11.25.57-4.15,6.16-15.43,6.16-15.43s-8.62-2.66-11.95-3.48c-2.24-.55-4.83-2.14-7.19-1.81s-4.46,2.46-6.58,3.34A28.38,28.38,0,0,1,310.87,147a17.13,17.13,0,0,1-5.05-1.28c-1.4-.57-1.89-1.84-3.1-2.37-1.43-.63-4.44,1-5.48,1.86-3,2.5-8.6,19.43-10.36,23.78a16.25,16.25,0,0,0-1.46,7.08c.23,3.35,6.37,16.81,7.45,20.35,1.45,4.72,2.17,9.36,3.2,14.16a102.89,102.89,0,0,1,1.72,10.15c.27,2.39-.45,5.09.15,7.34.86,3.22,4.57,4.62,7.71,5.28,7.47,1.58,15.51.38,23-.55,4.66-.58,9.67-.68,14.2-1.7,11.83-2.65,9.81-13.65,8.66-22.34C351,204.61,349.26,200.74,348.52,196.66Z"/><polygon class="cls-43" points="315.1 142.48 315.18 142.49 315.12 142.46 315.1 142.48"/><path class="cls-44" d="M306,142l.1,0-.1-.05Z"/><path class="cls-45" d="M337.07,232.44c-7.11.7-14.68,1-21.85,1-4.56,0-11.71-1.18-16.77,0-.28,3.29-.88,6.55-1.19,9.83l.25.08c7.68,2.23,16.87,2.17,24.84,2.15,7.77,0,15.89-1.8,23.48-3.3a15.32,15.32,0,0,0,6.06-2.56,20.92,20.92,0,0,1-3.51-8.68C344.53,230.84,339.48,232.21,337.07,232.44Z"/><path class="cls-38" d="M329.62,139c-2.78,2.64-5.63,5.14-9.34,6.31h0a32.75,32.75,0,0,1-4.67,1.13c-.55.08-2.51,0-2.87.63-.56.92,1.81,3.89,2.23,4.63.74,1.28,1.05,3.13,2.37,3.94s3.63-1.77,5.39-3.32C326,149.39,336.18,143.35,329.62,139Z"/><path class="cls-38" d="M309.44,146.33a10.32,10.32,0,0,1-4.24-1.47c-.9-.68-1.59-2.78-3.05-2.15a1.45,1.45,0,0,0-.32.2c-1,.87-.4,3.3-.12,4.26.21.72,3.89,8.6,5,7.51a9.59,9.59,0,0,0,1.41-1.69c.57-.85,3.91-3.81,4.21-5.17C312.81,145.85,310.82,146.58,309.44,146.33Z"/><path class="cls-10" d="M234.32,231.27c-1.71,2.73.74,5.92,2.79,7.65a7.72,7.72,0,0,0,1.87,1.3c3.49,1.41,2.77-7.39,1.21-8.9C238.42,229.6,235.83,228.86,234.32,231.27Z"/><path class="cls-7" d="M235.36,231.69l.36,1.15a10.78,10.78,0,0,1,5.18.22l.32-1.17A11.65,11.65,0,0,0,235.36,231.69Z"/><path class="cls-7" d="M235.05,234.81l.34,1.16a22.67,22.67,0,0,1,5.72-.73l0-1.21A23.61,23.61,0,0,0,235.05,234.81Z"/><path class="cls-7" d="M242.76,237.1l-.75.09.13,1.21.77-.1a10.83,10.83,0,0,1,3-.11l.26-1.18A11.36,11.36,0,0,0,242.76,237.1Z"/><path class="cls-27" d="M347.45,144.47c-10.15-3.47-10.58,10.43-9.93,18.35a186.93,186.93,0,0,1,.41,29c-.68,8.59-2.92,17.63-9,23.19-4.5,4.14-10.42,5.22-15.93,6.59-2.23.56-4.5.79-6.72,1.43-1.48.43-3.18.4-4.48,1.35-3,2.21-3.21,6.85-2.36,10.21.57,2.29.95,4.85,2.22,6.88,1.62,2.59,4.5,2.37,7.26,2.17,1.8-.13,3.57.31,5.39.24,4.84-.17,9.77-.78,14.56-1.43,9.35-1.28,19.16-3.77,26.13-10.69A30.85,30.85,0,0,0,362.27,220a38,38,0,0,0,1.22-4.23c2.63-11.4.52-21.83-.37-33.12S359,148.43,347.45,144.47Z"/><path class="cls-46" d="M304.79,223.63c-1.1.45-2.34,1.07-3.25,1.47a5.58,5.58,0,0,0-1.43.91c-2.8,2.42-1.64,6-1.35,9.06s1.53,7.8,4.56,8.76a20.38,20.38,0,0,0,4,.24,25.58,25.58,0,0,1-2.22-7.72A43.57,43.57,0,0,1,304.79,223.63Z"/><path class="cls-47" d="M311.89,80.94c8.87-2.47,18,1.13,22.35,9.33,3,5.61,2.63,11.86,7.08,15.24a12,12,0,0,0,5.32,2.14c3.77.67,8.48,2.34,9.37,6.88.51,2.55-1.1,5.17-.29,7.6s2.73,3.17,2.7,6.32c-.09,8.89-11.07,16.22-19.34,15.79-12-.64-19.46-12.92-16.72-24.11.47-1.92,1.83-3.61,2.37-5.61,2,.06,2.94-1.22,2.86-3.09-.1-2.51-1.59-2.61-3.75-2.17-.36-1-.42-2-.69-3A34.57,34.57,0,0,0,320,99.21a20.41,20.41,0,0,0-5.74-6.9c-2.23-1.66-6.1-2.58-7.31-5.33S309.67,81.56,311.89,80.94Z"/><path class="cls-48" d="M349.12,115.2Z"/><path class="cls-24" d="M148.72,228.24c-3.35-1.75-7.51-.9-10.88.31-3,1.08-15.87,4.7-19.45,4.61-1.89,0-.87,13.5-.54,13.54,2.71.3,5.21-.31,7.87-.56,3.73-.36,8.34-.41,10.91-3.62,1-1.25.88-2.87,1.53-4.26,1-2.14,3.35-2.77,5.53-2.71a3.87,3.87,0,0,1,2.71.72c.39.27,2.25,3,2.46,2.92,2.2-.66,3.48-3,3.75-5.15C152.93,231.47,150.81,229.32,148.72,228.24Z"/><path class="cls-32" d="M149.16,237.31c-.32-2.28-2.08-5.51-5-5.54l0-1.46c3.54,0,5.94,3.53,6.41,6.79Z"/><path class="cls-32" d="M150.79,233.75a9.45,9.45,0,0,1-.9-1.33c-.52-.88-.89-1.51-1.84-1.75l.36-1.41a4.35,4.35,0,0,1,2.73,2.42,8.26,8.26,0,0,0,.76,1.13Z"/><path class="cls-38" d="M120.93,232.32c-.85-1.93-5.07-1.34-6.77-1.17,1.27,1.94,1.13,5.67,1.17,7.88.08,4,.32,8.4-1.19,12.14,3.23.38,6.61-1.71,7.13-4.62.67-3.78.24-8.25.1-12.13A5.89,5.89,0,0,0,120.93,232.32Z"/><path class="cls-45" d="M80.18,221.14c-6.85-2.41-10.53-4.91-14.38-11.48-3.48-5.92-5-12.82-5.86-19.61-.77-6.31.43-12.05,0-18.21-1-13.32-6.44-34.67-22.51-22-7.3,5.77-8.77,14-10.57,23a84.82,84.82,0,0,0,.89,37.47c3.15,12.28,8.3,23.14,16.88,32.27,5.76,6.14,14.08,9.22,22.33,10.25,3.34.42,6.43,1.23,9.71,1.79,8.21,1.41,17.84-.41,26.08-1.12,3.51-.3,7.27,1.29,10.44-.86,2.64-1.78,3.5-5.19,3.61-8.17A38.84,38.84,0,0,0,115.69,233c-.24-.9-2.14-7.77-3.27-7.86-5.13-.38-10.61.32-15.59-.36A84.45,84.45,0,0,1,80.18,221.14Z"/><path class="cls-27" d="M223.5,200.13c-18.25.23-43.93-.32-53.23,0-5,.16-7.61-1.13-11.22.6-2,1-4.11,2.22-5.19,4.22-4.08,7.51-16.67,37.22-17.9,41.32-.57,1.9-3.06,6-2.18,7.43,2.3,3.84,63.81.45,74.28.11,1.45,0,18.22-37.18,20-41.2C230.72,206.4,231.4,200,223.5,200.13Z"/><path class="cls-30" d="M228.69,199.29c-18.27.24-60.91-1.16-64.52.63-2,1-4.11,2.28-5.2,4.34-4.08,7.73-16.68,38.33-17.91,42.55-.57,2-3.06,6.14-2.19,7.65,2.31,4,63.87.46,74.36.12,1.45-.05,18.24-38.29,20-42.43C235.91,205.75,236.59,199.19,228.69,199.29Z"/><polygon class="cls-4" points="288.06 259 243.06 259 237.06 201.01 275.43 201.01 278.17 202.26 278.85 204.87 288.06 259"/><path class="cls-49" d="M191.28,223.84c-5.88-5.09-12.4,8.27-4.41,9.82,5.16,1,8.18-6.37,4.51-9.73Z"/><path class="cls-42" d="M227.08,204.41c-1.58-.9-13.24-1.55-13.35,1.43-.24,6.16,11.58-2.61,10.5,6.09-.81,6.51-14.71,28.34-16.08,34.3-.41,1.78.06,3.73,2,3.78,1.76.05,2.92-2.63,3.72-4,4.12-6.93,10.58-23.4,10.74-23.76C226.48,218,233.18,207.88,227.08,204.41Z"/><path class="cls-42" d="M200.32,204.33c-7.43-.77-15.46-.21-23-.21-1.9,0-14.28,1-11.79,3.61a1.64,1.64,0,0,0,2,.26h-.88l1.44-.43a2,2,0,0,1-.56.43c8.71,0,17.52-.32,26.22,0,2.86.11,7.71.58,10.22-.9C207,205.29,202.82,204.59,200.32,204.33Z"/><path class="cls-28" d="M348.19,254.86H28.42c-6.81,0-11.41.27-14.72,1.78a10.28,10.28,0,0,0-3.41,2.45c-2.86,3.1-.95,6.57,8,7.72,7.7,1,16.21.37,24.13.37H60.17a2.73,2.73,0,0,0,1.45,0H240.35c41.18,0,82.47-.38,123.64,0,11,.1,17.87-3.77,15.65-8.37C376.88,253.09,358.43,254.86,348.19,254.86Z"/><path class="cls-50" d="M293.16,229.84c-2.64.39-5.56.63-8.23.85-9.45.82-12.12-1.75-13.92-1.17-1.09.35-1.26,1.9-1.21,3,0,.21,0,.4.05.57.24,1.75,1.93,3.71,3.31,4.84,3.65,3,9.12,3.67,13.79,4.17s16.58-.33,27.62-.71c-1.68-1.93-2.24-9.5-7.17-14.61C308.22,227.64,294.35,229.67,293.16,229.84Z"/><path class="cls-7" d="M284.11,225.69a27.6,27.6,0,0,1-2.6-2.47c-.95,1.16-.49,3.17.32,4.27.56.77,1.29,1.36,1.89,2.1a3.9,3.9,0,0,1-1.26.37c3.92.9,7.87-.18,11.63-.25a16.37,16.37,0,0,1-7.48-2.31A28.29,28.29,0,0,1,284.11,225.69Z"/><path class="cls-7" d="M294.24,228.77c-2.65.42-5.56.68-8.23.93-9.46.89-12.13-1.93-13.93-1.29-1.08.38-1.26,2.09-1.2,3.3,0,.23,0,.44.05.63.24,1.92,1.92,4.06,3.3,5.3,3.66,3.29,9.12,4,13.8,4.58s16.58-.37,27.62-.78c-1.68-2.12-2.25-10.42-7.18-16C309.3,226.35,295.42,228.58,294.24,228.77Z"/><path class="cls-32" d="M271.34,229a4.22,4.22,0,0,1-.09.94A16.51,16.51,0,0,0,280.2,234l.15-1.1c-4.06-.66-7-2-8.92-4Z"/><path class="cls-32" d="M270.87,231.73a5.32,5.32,0,0,0,.41,1.56c2.14,2,4.92,3.2,9.12,3.79l.14-1.2C276.19,235.26,272.82,233.84,270.87,231.73Z"/><path class="cls-32" d="M277.57,238.12a15.87,15.87,0,0,1-4.87-2.4,5.68,5.68,0,0,0,2.12,2.3,9.71,9.71,0,0,0,2,1c.43.16,5.1,1.13,5.13.82l.07-1.13A23.87,23.87,0,0,1,277.57,238.12Z"/><path class="cls-32" d="M272.7,235.72l0-.07A.13.13,0,0,0,272.7,235.72Z"/><polygon class="cls-51" points="275.43 201.01 278.85 205.13 278.17 202.34 275.43 201.01"/></g></g></svg>